<?xml version="1.0" encoding="utf-8"?>
<!-- Generator: Adobe Illustrator 19.1.0, SVG Export Plug-In . SVG Version: 6.00 Build 0)  -->
<svg version="1.1" id="Layer_1" xmlns="http://www.w3.org/2000/svg" xmlns:xlink="http://www.w3.org/1999/xlink" x="0px" y="0px"
	 viewBox="0 0 61.5 88" style="enable-background:new 0 0 61.5 88;" xml:space="preserve">
<style type="text/css">
	.st0{opacity:0.3;fill:url(#SVGID_1_);}
	.st1{fill:#336396;}
	.st2{fill:none;stroke:#70A7DA;stroke-width:4.8605;stroke-linecap:round;stroke-linejoin:round;stroke-miterlimit:10;}
	.st3{opacity:0.3;fill:url(#SVGID_2_);}
	.st4{fill:none;stroke:#70A7DA;stroke-width:4.1994;stroke-linecap:round;stroke-linejoin:round;stroke-miterlimit:10;}
	.st5{fill:none;stroke:#336396;stroke-width:4.7244;stroke-linecap:round;stroke-linejoin:round;stroke-miterlimit:10;}
	.st6{fill:#70A7DA;}
	.st7{opacity:0.3;fill:url(#SVGID_3_);}
	.st8{opacity:0.3;fill:url(#SVGID_4_);}
	.st9{fill:#346094;}
	.st10{opacity:0.3;fill:url(#SVGID_5_);}
	.st11{fill:url(#SVGID_6_);}
	.st12{fill:#FFFFFF;}
	.st13{fill:#6FA7DA;}
</style>
<radialGradient id="SVGID_1_" cx="1824.0919" cy="-15790.1582" r="103.8101" gradientTransform="matrix(0.2955 0 0 2.890431e-02 -508.4224 537.7678)" gradientUnits="userSpaceOnUse">
	<stop  offset="6.060610e-03" style="stop-color:#231F20"/>
	<stop  offset="9.883187e-02" style="stop-color:#3D3738;stop-opacity:0.9067"/>
	<stop  offset="0.2574" style="stop-color:#676161;stop-opacity:0.7471"/>
	<stop  offset="0.4157" style="stop-color:#938D8D;stop-opacity:0.5879"/>
	<stop  offset="0.5708" style="stop-color:#BBB6B6;stop-opacity:0.4318"/>
	<stop  offset="0.7219" style="stop-color:#DBD8D8;stop-opacity:0.2798"/>
	<stop  offset="0.8671" style="stop-color:#F2F1F1;stop-opacity:0.1337"/>
	<stop  offset="1" style="stop-color:#FFFFFF;stop-opacity:0"/>
</radialGradient>
<ellipse class="st0" cx="30.7" cy="81.4" rx="30.7" ry="3"/>
<g>
	<g>
		<circle class="st5" cx="30.5" cy="38.6" r="26.1"/>
	</g>
	<path class="st6" d="M26.6,37.5c0,3,1.7,4.1,3.3,4.1c2,0,3.5-0.9,3.5-4.4c0-1.6-0.8-4.9-1.2-7.4c-0.6-3.2-1.3-5.8-2.2-10.4
		c-1,4.6-1.5,7.3-2.1,10.5C27.1,33.3,26.6,35.3,26.6,37.5z"/>
	<path class="st1" d="M36.1,5.9l-11.6,0c-0.5,0-1-0.4-1-1l0-4.1c0-0.5,0.4-1,1-1l11.6,0c0.5,0,1,0.4,1,1l0,4.1
		C37.1,5.5,36.6,5.9,36.1,5.9z"/>
	<path class="st1" d="M57.5,19.9L52,14.4c-0.4-0.4-0.4-1.1,0-1.5l2.3-2.3c0.4-0.4,1.1-0.4,1.5,0l5.4,5.4c0.4,0.4,0.4,1.1,0,1.5
		l-2.3,2.3C58.5,20.3,57.9,20.3,57.5,19.9z"/>
</g>
</svg>
