<?xml version="1.0" encoding="utf-8"?>
<!-- Generator: Adobe Illustrator 19.1.0, SVG Export Plug-In . SVG Version: 6.00 Build 0)  -->
<svg version="1.1" id="Layer_1" xmlns="http://www.w3.org/2000/svg" xmlns:xlink="http://www.w3.org/1999/xlink" x="0px" y="0px"
	 viewBox="-269 353 72.9 88" style="enable-background:new -269 353 72.9 88;" xml:space="preserve">
<style type="text/css">
	.st0{opacity:0.3;fill:url(#SVGID_1_);enable-background:new    ;}
	.st1{fill:#346094;}
	.st2{fill:#70A7DA;}
</style>
<radialGradient id="SVGID_1_" cx="3567.1433" cy="4453.2407" r="103.8219" gradientTransform="matrix(0.2955 0 0 -2.364000e-02 -1284.0941 539.2746)" gradientUnits="userSpaceOnUse">
	<stop  offset="6.060610e-03" style="stop-color:#231F20"/>
	<stop  offset="9.883187e-02" style="stop-color:#000000;stop-opacity:0.9067"/>
	<stop  offset="0.2574" style="stop-color:#000000;stop-opacity:0.7471"/>
	<stop  offset="0.4157" style="stop-color:#000000;stop-opacity:0.5879"/>
	<stop  offset="0.5708" style="stop-color:#000000;stop-opacity:0.4318"/>
	<stop  offset="0.7219" style="stop-color:#000000;stop-opacity:0.2798"/>
	<stop  offset="0.8671" style="stop-color:#000000;stop-opacity:0.1337"/>
	<stop  offset="1" style="stop-color:#000000;stop-opacity:0"/>
</radialGradient>
<ellipse class="st0" cx="-229.9" cy="434" rx="30.7" ry="3"/>
<g>
	<g>
		<path class="st1" d="M-196.9,370.1h-43.9c-0.5,0.1-0.9,0.5-0.9,0.9v31.3c0,0.5,0.4,0.9,0.9,0.9h37c0.5,0,1.1,0.3,1.4,0.6l5.7,6.7
			c0.3,0.3,0.6,0.3,0.6-0.2v-39.4C-196.1,370.5-196.5,370.1-196.9,370.1z M-220.7,390.4h-6.4v-9.8h6.2v2.1h-3.8v1.8h3v2.1h-3v1.9h4
			V390.4z M-210.7,390.4h-2.4l-2.7-4.6c-0.4-0.6-0.8-1.7-0.8-1.7h0c0,0,0.1,1.1,0.1,1.7v4.6h-2.4v-9.8h2.4l2.7,4.6
			c0.4,0.7,0.8,1.7,0.8,1.7h0c0,0-0.1-1.1-0.1-1.7v-4.6h2.4V390.4z"/>
	</g>
	<g>
		<path class="st2" d="M-224.3,359.9h-43.8c-0.5,0-0.9,0.4-0.9,0.8V400c0,0.5,0.2,0.6,0.6,0.2l5.7-6.7c0.3-0.2,0.9-0.5,1.4-0.5h18.5
			v-12.8l-0.8-1.6h-1.1v3.3h-2.4V372h3.4c0.4,0,0.7,0,1,0V369h19.4v-8.2C-223.4,360.3-223.8,359.9-224.3,359.9z M-248.7,374.1h-3.6
			v2.1h3v2.1h-3v3.6h-2.4V372h6V374.1z M-244.8,374.1v2.4h1.1c0.4,0,0.7-0.1,0.9-0.3v-1.8c-0.2-0.2-0.6-0.3-1.2-0.3H-244.8z"/>
	</g>
</g>
</svg>
