<?xml version="1.0" encoding="utf-8"?>
<!-- Generator: Adobe Illustrator 19.1.0, SVG Export Plug-In . SVG Version: 6.00 Build 0)  -->
<svg version="1.1" id="Layer_1" xmlns="http://www.w3.org/2000/svg" xmlns:xlink="http://www.w3.org/1999/xlink" x="0px" y="0px"
	 viewBox="0 0 66.3 94.8" style="enable-background:new 0 0 66.3 94.8;" xml:space="preserve">
<style type="text/css">
	.st0{opacity:0.3;fill:url(#SVGID_1_);}
	.st1{fill:#346094;}
	.st2{opacity:0.3;fill:url(#SVGID_2_);}
	.st3{opacity:0.3;fill:url(#SVGID_3_);}
	.st4{opacity:0.3;fill:url(#SVGID_4_);}
	.st5{opacity:0.3;fill:url(#SVGID_5_);}
	.st6{opacity:0.3;fill:url(#SVGID_6_);}
	.st7{fill:#6DABE4;}
	.st8{fill:none;stroke:#6DABE4;stroke-width:1.459;stroke-miterlimit:10;}
	.st9{fill:none;stroke:#346094;stroke-width:4.749;stroke-linecap:round;stroke-linejoin:round;stroke-miterlimit:10;}
	.st10{opacity:0.3;fill:url(#SVGID_7_);}
	.st11{opacity:0.3;fill:url(#SVGID_8_);}
	.st12{opacity:0.3;fill:url(#SVGID_9_);}
	.st13{fill:#326295;}
	.st14{fill:none;stroke:#6DABE4;stroke-width:2.735;stroke-linecap:round;stroke-linejoin:round;stroke-miterlimit:10;}
	.st15{fill:none;stroke:#326295;stroke-width:6;stroke-linecap:round;stroke-miterlimit:10;}
	.st16{fill:#6FA8DB;}
	.st17{fill:#FFFFFF;}
</style>
<g>
	<path class="st1" d="M57,36v26.9c5.9,0,9.3-4.2,9.3-9.4v-8.1C66.3,40.2,62.9,36,57,36z"/>
	<g>
		<path class="st7" d="M29.4,72.6c-3.1,0-5.7,2.6-5.7,5.7c0,3.1,2.5,5.7,5.7,5.7h5c3.1,0,5.7-2.6,5.7-5.7c0-3.1-2.5-5.7-5.7-5.7
			L29.4,72.6z"/>
		<g>
			<path class="st1" d="M20.8,76.5h-5.1c-4.6,0-8.9-4.4-8.9-8.9v-5.2c0.8,0.3,1.7,0.5,3.4,0.5V36C4.2,36,0,40.2,0,45.4v8.1
				c0,2.7,1.7,5.2,3.4,6.9v7.2c0,6.4,5.9,12.3,12.3,12.3h5c-0.2-0.5-0.2-1.1-0.2-1.6C20.5,77.7,20.6,77.1,20.8,76.5z"/>
		</g>
	</g>
	<path class="st9" d="M55.4,30.2c-2.7-9.8-11.7-16.9-22.3-16.9c-10.6,0-19.6,7.2-22.3,16.9"/>
</g>
</svg>
