<?xml version="1.0" encoding="utf-8"?>
<!-- Generator: Adobe Illustrator 19.1.0, SVG Export Plug-In . SVG Version: 6.00 Build 0)  -->
<svg version="1.1" id="Layer_1" xmlns="http://www.w3.org/2000/svg" xmlns:xlink="http://www.w3.org/1999/xlink" x="0px" y="0px"
	 viewBox="0 0 63.5 88" style="enable-background:new 0 0 63.5 88;" xml:space="preserve">
<style type="text/css">
	.st0{opacity:0.3;fill:url(#SVGID_1_);}
	.st1{fill:#336396;}
	.st2{fill:none;stroke:#70A7DA;stroke-width:4.8605;stroke-linecap:round;stroke-linejoin:round;stroke-miterlimit:10;}
	.st3{opacity:0.3;fill:url(#SVGID_2_);}
	.st4{fill:none;stroke:#70A7DA;stroke-width:4.1994;stroke-linecap:round;stroke-linejoin:round;stroke-miterlimit:10;}
	.st5{fill:none;stroke:#336396;stroke-width:4.7244;stroke-linecap:round;stroke-linejoin:round;stroke-miterlimit:10;}
	.st6{fill:#70A7DA;}
	.st7{opacity:0.3;fill:url(#SVGID_3_);}
	.st8{opacity:0.3;fill:url(#SVGID_4_);}
	.st9{fill:#346094;}
	.st10{opacity:0.3;fill:url(#SVGID_5_);}
	.st11{fill:url(#SVGID_6_);}
	.st12{fill:#FFFFFF;}
	.st13{fill:#6FA7DA;}
</style>
<radialGradient id="SVGID_1_" cx="2732.1936" cy="-15802.7822" r="103.8101" gradientTransform="matrix(0.2955 0 0 2.890431e-02 -775.7435 537.7678)" gradientUnits="userSpaceOnUse">
	<stop  offset="6.060610e-03" style="stop-color:#231F20"/>
	<stop  offset="9.883187e-02" style="stop-color:#3D3738;stop-opacity:0.9067"/>
	<stop  offset="0.2574" style="stop-color:#676161;stop-opacity:0.7471"/>
	<stop  offset="0.4157" style="stop-color:#938D8D;stop-opacity:0.5879"/>
	<stop  offset="0.5708" style="stop-color:#BBB6B6;stop-opacity:0.4318"/>
	<stop  offset="0.7219" style="stop-color:#DBD8D8;stop-opacity:0.2798"/>
	<stop  offset="0.8671" style="stop-color:#F2F1F1;stop-opacity:0.1337"/>
	<stop  offset="1" style="stop-color:#FFFFFF;stop-opacity:0"/>
</radialGradient>
<ellipse class="st0" cx="31.7" cy="81" rx="30.7" ry="3"/>
<g>
	<g>
		<g>
			<path class="st9" d="M31.7,0.5C14.2,0.5,0,14.8,0,32.3C0,49.8,14.2,64,31.7,64c17.5,0,31.7-14.2,31.7-31.7
				C63.5,14.8,49.3,0.5,31.7,0.5z M37.1,59.3c-1.7,0.3-3.5,0.5-5.3,0.5c-15.2,0-27.5-12.3-27.5-27.5c0-8.4,3.8-15.9,9.7-21
				c0.2,0.3,0.4,0.6,0.6,0.9c-0.4,0.1-0.7,0.2-1.1,0.3c-0.1,0.4-0.2,0.9-0.3,1.4c0.4-0.1,0.9-0.2,1.4-0.3c-0.5,0.6-1,1.2-1.4,1.9
				c0.1,0.6,0.2,1.2,0.3,1.8c0.3-0.1,0.7-0.1,1-0.2C13.8,18,13.3,19,12.9,20c0.7-1.2,1.6-2.2,2.7-3.3c0.6-0.6,1.3-1.2,2-1.7
				c1,0.3,2,0.7,3.1,1.2c0.8,1.3,1.6,2.7,2.6,4.4c-0.1,1.6-0.2,3.2-0.3,4.9c0.6,1.2,1.3,2.5,2,3.8c1.1,1.8,2.3,3.7,3.6,5.7
				c1.5,0.5,3,1.1,4.5,1.6c0.6,0.3,1.3,0.6,1.9,1c0.7,1,1.5,1.9,2.2,2.8c0.5-0.1,1-0.2,1.5-0.3c-0.6,0.9-1.1,1.9-1.7,2.8
				c0.4,1.8,0.8,3.6,1.2,5.3c0.9,0.7,1.8,1.4,2.6,2C39.6,54,38.3,57.2,37.1,59.3z M41.2,58.1c0.1-0.1,0.2-0.2,0.4-0.4
				c1.9-1.3,3.7-2.9,5.3-4.8c0.2-0.6,0.3-1.3,0.5-2c0.7-0.4,1.3-0.7,1.8-1.1c0.6-1.9,1.1-3.8,1.3-5.7c-0.5-0.2-1.2-0.6-2.1-1.1
				c-0.1-0.7-0.2-1.4-0.3-2c-0.8-0.7-1.7-1.6-2.7-2.5c-1.5-0.1-3.4-0.2-5.3-0.4c-0.3,0.5-0.6,1-0.9,1.5c-0.4-0.1-0.8-0.3-1.2-0.4
				c-0.2-0.8-0.4-1.6-0.6-2.4c-0.6,0-1.2-0.1-1.9-0.1c0.3-0.8,0.5-1.5,0.8-2.3c-0.5-0.1-1.1-0.1-1.6-0.2c-0.5,0.4-1.1,0.9-1.6,1.3
				c-0.4-0.5-0.8-1.1-1.1-1.6c0.3-0.9,0.6-1.8,1-2.7c1.5-0.2,2.9-0.4,4.3-0.6c0.3,0.7,0.5,1.5,0.8,2.2c0.4-0.1,0.7-0.1,1.1-0.1
				c0-0.7,0-1.4,0-2c0.9-1.3,1.8-2.6,2.7-3.8c1.1-0.5,2.1-1.1,3-1.5c1.2-0.5,2.3-0.8,3.2-1.1C47,21.9,46,19.6,45,17.4
				c-0.3,0.1-0.7,0.3-1.1,0.4c-0.4-1-0.9-1.9-1.3-2.7c-0.8-0.1-1.6-0.2-2.4-0.3c0,1.4-0.1,2.9-0.2,4.6c-0.3,0-0.6,0-1,0
				c-1.5-1.5-3-2.9-4.4-4.1c0.3-0.6,0.5-1.1,0.8-1.7c1.4-0.1,2.7-0.2,4-0.3c-0.2-1.2-0.4-2.3-0.6-3.1c-3.1,0-6.3,0-9.5,0.3
				c-1.6-0.5-3.2-0.8-4.6-1.2c-0.8,0.3-1.7,0.7-2.5,1.2c-1.8-0.5-3.4-0.9-5.1-1.6c4.3-2.7,9.3-4.3,14.7-4.3
				c15.2,0,27.5,12.3,27.5,27.5C59.3,44.2,51.7,54.2,41.2,58.1z"/>
		</g>
	</g>
	<g>
		<path class="st12" d="M36.9,19.5L36.9,19.5c-2.5,0-4.5-2-4.5-4.5v0c0-2.5,2-4.5,4.5-4.5h0c2.5,0,4.5,2,4.5,4.5v0
			C41.4,17.5,39.4,19.5,36.9,19.5z"/>
		<g>
			<path class="st13" d="M36.9,9.1c-3.3,0-6,2.6-6,5.9s4.8,10.2,6,10.2c1.2,0,6-6.9,6-10.2S40.2,9.1,36.9,9.1z M36.9,19
				c-2.2,0-4.1-1.8-4.1-4s1.8-4,4.1-4c2.2,0,4.1,1.8,4.1,4S39.1,19,36.9,19z"/>
		</g>
	</g>
</g>
</svg>
